<svg width="334" height="94" viewBox="0 0 334 94" fill="none" xmlns="http://www.w3.org/2000/svg">
<g clip-path="url(#clip0_396_11803)">
<mask id="mask0_396_11803" style="mask-type:luminance" maskUnits="userSpaceOnUse" x="0" y="0" width="334" height="94">
<path d="M334 0H0V94H334V0Z" fill="white"/>
</mask>
<g mask="url(#mask0_396_11803)">
<path d="M10.0664 52.9997L19.0264 8.19972H37.1384C42.7277 8.19972 47.037 9.43705 50.0664 11.9117C53.1384 14.3437 54.6744 17.757 54.6744 22.1517C54.6744 25.9064 53.7997 29.1917 52.0504 32.0077C50.301 34.781 47.7837 36.9144 44.4984 38.4077C41.2557 39.901 37.3944 40.6477 32.9144 40.6477H18.3864L23.8904 35.9117L20.4984 52.9997H10.0664ZM23.6344 37.1277L19.9864 32.1997H33.3624C36.7757 32.1997 39.421 31.4317 41.2984 29.8957C43.2184 28.317 44.1784 26.0344 44.1784 23.0477C44.1784 20.8717 43.453 19.2717 42.0024 18.2477C40.5517 17.181 38.5037 16.6477 35.8584 16.6477H23.2504L28.7544 11.5917L23.6344 37.1277ZM73.2779 53.5117C69.6939 53.5117 66.5792 52.8717 63.9339 51.5917C61.3312 50.3117 59.3045 48.5197 57.8539 46.2157C56.4032 43.9117 55.6779 41.2024 55.6779 38.0877C55.6779 34.2477 56.5312 30.8344 58.2379 27.8477C59.9872 24.8184 62.3765 22.429 65.4059 20.6797C68.4779 18.9304 71.9979 18.0557 75.9659 18.0557C79.3365 18.0557 82.2379 18.6957 84.6699 19.9757C87.1019 21.213 88.9792 22.9624 90.3019 25.2237C91.6672 27.4424 92.3499 30.109 92.3499 33.2237C92.3499 34.1197 92.2859 35.0157 92.1579 35.9117C92.0725 36.8077 91.9445 37.661 91.7739 38.4717H63.2939L64.3179 32.6477H87.1019L83.0059 34.4397C83.3472 32.5197 83.2405 30.9197 82.6859 29.6397C82.1312 28.317 81.2352 27.3144 79.9979 26.6317C78.7605 25.9064 77.2672 25.5437 75.5179 25.5437C73.3419 25.5437 71.4859 26.077 69.9499 27.1437C68.4565 28.1677 67.3259 29.597 66.5579 31.4317C65.7899 33.2664 65.4059 35.3357 65.4059 37.6397C65.4059 40.285 66.1312 42.269 67.5819 43.5917C69.0752 44.8717 71.3152 45.5117 74.3019 45.5117C76.0512 45.5117 77.7365 45.2344 79.3579 44.6797C80.9792 44.125 82.3659 43.3357 83.5179 42.3117L87.6779 48.9037C85.6725 50.4824 83.4112 51.6557 80.8939 52.4237C78.4192 53.149 75.8805 53.5117 73.2779 53.5117ZM112.826 53.5117C109.242 53.5117 106.127 52.8717 103.482 51.5917C100.879 50.3117 98.852 48.5197 97.4014 46.2157C95.9507 43.9117 95.2254 41.2024 95.2254 38.0877C95.2254 34.2477 96.0787 30.8344 97.7854 27.8477C99.5347 24.8184 101.924 22.429 104.954 20.6797C108.026 18.9304 111.546 18.0557 115.514 18.0557C118.884 18.0557 121.786 18.6957 124.218 19.9757C126.65 21.213 128.527 22.9624 129.85 25.2237C131.215 27.4424 131.898 30.109 131.898 33.2237C131.898 34.1197 131.834 35.0157 131.706 35.9117C131.62 36.8077 131.492 37.661 131.322 38.4717H102.842L103.866 32.6477H126.65L122.554 34.4397C122.895 32.5197 122.788 30.9197 122.234 29.6397C121.679 28.317 120.783 27.3144 119.546 26.6317C118.308 25.9064 116.815 25.5437 115.066 25.5437C112.89 25.5437 111.034 26.077 109.498 27.1437C108.004 28.1677 106.874 29.597 106.106 31.4317C105.338 33.2664 104.954 35.3357 104.954 37.6397C104.954 40.285 105.679 42.269 107.13 43.5917C108.623 44.8717 110.863 45.5117 113.85 45.5117C115.599 45.5117 117.284 45.2344 118.906 44.6797C120.527 44.125 121.914 43.3357 123.066 42.3117L127.226 48.9037C125.22 50.4824 122.959 51.6557 120.442 52.4237C117.967 53.149 115.428 53.5117 112.826 53.5117ZM134.069 52.9997L140.917 18.5677H150.389L148.405 28.3597L147.509 25.5437C149.045 22.7704 151.051 20.829 153.525 19.7197C156 18.6104 158.965 18.0557 162.421 18.0557L160.629 27.2717C160.203 27.229 159.797 27.2077 159.413 27.2077C159.072 27.165 158.709 27.1437 158.325 27.1437C155.381 27.1437 152.971 27.869 151.093 29.3197C149.259 30.7704 148.021 33.117 147.381 36.3597L144.053 52.9997H134.069ZM161.257 52.9997L170.217 8.19972H188.969C193.577 8.19972 197.523 8.96772 200.809 10.5037C204.137 11.997 206.675 14.1517 208.425 16.9677C210.174 19.741 211.049 23.0477 211.049 26.8877C211.049 30.8557 210.366 34.4397 209.001 37.6397C207.678 40.8397 205.779 43.5917 203.305 45.8957C200.83 48.157 197.886 49.9064 194.473 51.1437C191.059 52.381 187.283 52.9997 183.145 52.9997H161.257ZM173.353 44.4877H183.465C187.091 44.4877 190.163 43.741 192.681 42.2477C195.241 40.7544 197.182 38.7277 198.505 36.1677C199.87 33.6077 200.553 30.7064 200.553 27.4637C200.553 25.245 200.083 23.3464 199.145 21.7677C198.206 20.1464 196.777 18.909 194.857 18.0557C192.979 17.1597 190.633 16.7117 187.817 16.7117H178.921L173.353 44.4877ZM231.156 53.5117C227.572 53.5117 224.457 52.8717 221.812 51.5917C219.209 50.3117 217.182 48.5197 215.732 46.2157C214.281 43.9117 213.556 41.2024 213.556 38.0877C213.556 34.2477 214.409 30.8344 216.116 27.8477C217.865 24.8184 220.254 22.429 223.284 20.6797C226.356 18.9304 229.876 18.0557 233.844 18.0557C237.214 18.0557 240.116 18.6957 242.548 19.9757C244.98 21.213 246.857 22.9624 248.18 25.2237C249.545 27.4424 250.228 30.109 250.228 33.2237C250.228 34.1197 250.164 35.0157 250.036 35.9117C249.95 36.8077 249.822 37.661 249.652 38.4717H221.172L222.196 32.6477H244.98L240.884 34.4397C241.225 32.5197 241.118 30.9197 240.564 29.6397C240.009 28.317 239.113 27.3144 237.876 26.6317C236.638 25.9064 235.145 25.5437 233.396 25.5437C231.22 25.5437 229.364 26.077 227.828 27.1437C226.334 28.1677 225.204 29.597 224.436 31.4317C223.668 33.2664 223.284 35.3357 223.284 37.6397C223.284 40.285 224.009 42.269 225.46 43.5917C226.953 44.8717 229.193 45.5117 232.18 45.5117C233.929 45.5117 235.614 45.2344 237.236 44.6797C238.857 44.125 240.244 43.3357 241.396 42.3117L245.556 48.9037C243.55 50.4824 241.289 51.6557 238.772 52.4237C236.297 53.149 233.758 53.5117 231.156 53.5117ZM264.943 53.5117C261.914 53.5117 259.055 53.1704 256.367 52.4877C253.722 51.805 251.674 50.9517 250.223 49.9277L254.063 42.6957C255.557 43.677 257.37 44.4664 259.503 45.0637C261.679 45.661 263.855 45.9597 266.031 45.9597C268.378 45.9597 270.085 45.661 271.151 45.0637C272.218 44.4664 272.751 43.6557 272.751 42.6317C272.751 41.821 272.303 41.2237 271.407 40.8397C270.511 40.413 269.381 40.0717 268.015 39.8157C266.65 39.5597 265.178 39.261 263.599 38.9197C262.063 38.5784 260.591 38.109 259.183 37.5117C257.818 36.8717 256.687 35.9757 255.791 34.8237C254.938 33.629 254.511 32.0717 254.511 30.1517C254.511 27.549 255.237 25.3517 256.687 23.5597C258.181 21.7677 260.229 20.4024 262.831 19.4637C265.477 18.525 268.463 18.0557 271.791 18.0557C274.181 18.0557 276.506 18.3117 278.767 18.8237C281.029 19.3357 282.949 20.0397 284.527 20.9357L280.943 28.2317C279.322 27.2077 277.615 26.525 275.823 26.1837C274.074 25.7997 272.389 25.6077 270.767 25.6077C268.421 25.6077 266.714 25.949 265.647 26.6317C264.623 27.2717 264.111 28.061 264.111 28.9997C264.111 29.8104 264.538 30.4504 265.391 30.9197C266.287 31.3464 267.418 31.709 268.783 32.0077C270.149 32.2637 271.621 32.5624 273.199 32.9037C274.778 33.2024 276.25 33.6717 277.615 34.3117C278.981 34.909 280.09 35.7837 280.943 36.9357C281.839 38.045 282.287 39.5597 282.287 41.4797C282.287 44.0824 281.519 46.301 279.983 48.1357C278.49 49.9277 276.442 51.2717 273.839 52.1677C271.237 53.0637 268.271 53.5117 264.943 53.5117ZM295.743 46.0877L297.919 33.7357L316.415 18.5677H329.407L310.143 34.6317L304.575 38.7277L295.743 46.0877ZM285.759 52.9997L295.231 5.51172H305.215L295.743 52.9997H285.759ZM311.679 52.9997L302.847 38.5357L309.823 30.9197L323.263 52.9997H311.679Z" fill="#0369A1"/>
<path d="M68 58.5C68 65.7935 71.7928 72.7882 78.5442 77.9454C85.2955 83.1027 94.4522 86 104 86C113.548 86 122.705 83.1027 129.456 77.9454C136.207 72.7882 140 65.7935 140 58.5H128.881C128.881 63.5408 126.259 68.3751 121.593 71.9394C116.927 75.5038 110.599 77.5062 104 77.5062C97.4012 77.5062 91.0727 75.5037 86.4066 71.9394C81.7405 68.375 79.1192 63.5408 79.1192 58.5H68Z" fill="#72CAF8"/>
</g>
</g>
<defs>
<clipPath id="clip0_396_11803">
<rect width="334" height="94" fill="white"/>
</clipPath>
</defs>
</svg>
